# xmcd
#
# Track frame offsets: 
#        150
#        26236
#        45624
#        60790
#        83968
#        106705
#        124434
#        139677
#        159135
#        176957
#        195466
#        213242
#        230595
#        248049
#        267958
#        283950
#        320100
#
# Disc length: 4542 seconds
#
# Revision: 0
# Processed by: cddbd v1.5.2PL0 Copyright (c) Steve Scherf et al.
# Submitted via: ExactAudioCopy v0.95b2
#
DISCID=f411bc11
DTITLE=Chess Clan - Мат Тебе
DYEAR=1900
DGENRE=Rap
TTITLE0=Мат Тебе
TTITLE1=Мир В Реальных Тонах
TTITLE2=Мгновения
TTITLE3=Идеальный Мир
TTITLE4=Без Права На Жизнь
TTITLE5=Осень Души
TTITLE6=Мой Город
TTITLE7=Проклятые И Забытые
TTITLE8=История Одной Девочки
TTITLE9=Непонятная Любовь
TTITLE10=Торчит
TTITLE11=Люди За Чертой
TTITLE12=Пиво За Сима И Hollow B.
TTITLE13=Все Понесется Опять
TTITLE14=Мысли О Бытие
TTITLE15=Эксперимент
TTITLE16=Мертвые Братья
EXTD=
EXTT0=
EXTT1=
EXTT2=
EXTT3=
EXTT4=
EXTT5=
EXTT6=
EXTT7=
EXTT8=
EXTT9=
EXTT10=
EXTT11=
EXTT12=
EXTT13=
EXTT14=
EXTT15=
EXTT16=
PLAYORDER=
